# xmcd CD database file
#
# Track frame offsets:
#	150
#	13458
#	25801
#	47352
#	61791
#	81616
#	100184
#	120835
#	142105
#	163238
#	176708
#	204259
#	219300
#	233574
#	257256
#
# Disc length: 4109 seconds
#
# Revision: 0
# Processed by: cddbd v1.5.1PL0 Copyright (c) Steve Scherf et al.
# Submitted via: CDex 1.50
#
DISCID=c3100b0f
DTITLE=Canario Luna - Por La Vuelta
DYEAR=2000
DGENRE=Country
TTITLE0=Por La Vuelta
TTITLE1=Perfil De Un Bandido
TTITLE2=Vendedoras de Ilusion
TTITLE3=A Los Negros Que Se Han Ido
TTITLE4=Cerro el Repique de Tu Corazon
TTITLE5=Recetas Que Ayudan a Enamorar
TTITLE6=Al Villa Con Amor
TTITLE7=Como Ha Pasado El Tiempo
TTITLE8=La Penultima Copa
TTITLE9=Agustin
TTITLE10=A Los Ranchos
TTITLE11=Entre El Principe Y El Rey
TTITLE12=Gloriosa Celeste
TTITLE13=Viejos Exitos Enganchados
TTITLE14=El Canario De Sobremesa
EXTD=YEAR: 2000
EXTT0=
EXTT1=
EXTT2=
EXTT3=
EXTT4=
EXTT5=
EXTT6=
EXTT7=
EXTT8=
EXTT9=
EXTT10=
EXTT11=
EXTT12=
EXTT13=
EXTT14=
PLAYORDER=
